<svg xmlns="http://www.w3.org/2000/svg" viewBox="0 0 536.23 338.55"><defs><style>.cls-1{fill:#ff441d;}</style></defs><title>Asset 13</title><g id="Layer_2" data-name="Layer 2"><g id="Layer_1-2" data-name="Layer 1"><path class="cls-1" d="M324.81,211.59c-4.19,4.9-3.66,11-4.78,16.43-2.67,12.82-3.42,26.05-9.19,38.18-1,2.19-.91,5-1,7.57-.33,11.54-1,23,1.78,34.49C313,314.12,315.37,319,320,323a28.06,28.06,0,0,1,5.68,6.43c2.14,3.49.53,7.75-3.41,8.2-8.54,1-17.22,2-25.93-1.45l-2.2-8.69-6-2.67a23.52,23.52,0,0,1,0-4.78,118.35,118.35,0,0,0,2.67-35.37c-.88-10.13-.18-20.54-4.58-30.23-1.13-2.49-1.13-5.67-1-8.5.42-9.27,1.11-18.53,1.75-27.79a28.61,28.61,0,0,0-4.82-18.36c-8.23.58-16.13,1-23.82,3.54-9.78,3.19-19.68,6-30.14,5.13q-17.72-1.38-35.42-2.89c-5.18-.43-9.22,1.54-12.85,5.22-8.86,9-18.72,16.54-30.91,20.07L145.58,240,139.43,239c-2,3,.63,8.08-4.21,10-5-.14-5.39-4.66-7.4-8.36L121,248.19l-6-7.66-8,2.55c-2.85,8.48.1,16.06,1,23.51a114.84,114.84,0,0,0,10.85,35.74c2.54,5.25,5.34,10.15,10.05,13.88,4.33,3.43,8,7.52,8.64,15.12a12.52,12.52,0,0,1-3.12,1.81c-5,1.63-16.53,1.17-23.3-.89l-3.32-7.8-5.32-.92c-.74-8.38-1.22-16.69-2.29-24.93a158.59,158.59,0,0,0-3.66-18.82,174.49,174.49,0,0,0-12.92-35.15c-2.92-5.84-7.1-9.72-13.34-11.43-7.5,14.1-13.87,28.36-15.92,44.19-.74,5.72-1.59,11.42-2.36,17.13a3.52,3.52,0,0,0,.09,1.9c4,8,4.27,17.41,9.78,24.88,4.68,6.34,4.45,6.51,4.36,13.06-7.24,2.35-16.25,2.45-24.69.15l-2-8.44-4.22-2.47c-3.54-11.69-3-23,.46-34.33.91-3,.87-6.35.92-9.54.12-8.36,0-16.71.06-25.07a81.33,81.33,0,0,0-5.43-31.08,22.13,22.13,0,0,1,1-19.39c2.34-4.56,4-9.47,6.5-14,6.23-11.29,6.4-23.42,5.07-35.64-1.45-13.37-3.32-26.7-5.4-40-1.06-6.83-3-13.52-4.55-20.57-4.31,1.87-4.81,5.42-5.5,8.29A260,260,0,0,0,23,129.62c-1.34,10.48-1.12,21.17-2.53,31.63-2.72,20.18-1.44,40.4-1.48,60.61a72.23,72.23,0,0,1-6.25,28.92c-1.52,3.5-3.33,7.23-3.44,10.9C9.21,265.85,3.49,267,5.14,272c1.09,3.35.21,7.34.21,12.56C-4,262,.5,241.23,6.76,220.86a148.65,148.65,0,0,0,6.53-45.46c-.13-15.1-.2-30.23.49-45.3.46-9.88,2.16-19.71,3.65-29.52a31.61,31.61,0,0,1,3.26-10c10.2-19,22.15-36.47,40.11-49.5,14-10.2,29.22-13.28,45.56-10.19,25.71,4.86,51.56,6.14,77.59,5,6.06-.26,12.07-1.49,18.13-2q37.38-3.09,74.78-6c16.62-1.31,33.24-2.56,49.85-3.88,4.15-.33,8.3-1.36,12.41-1.17,10.87.49,21.74,1.22,32.56,2.31,12.75,1.28,25.42,3.36,38.18,4.49,8.06.72,15.78-1.77,23.77-4.51-1-6.75-5.61-12.37-5.16-19.58,14.17-2.2,25.68,2.17,34.81,11.07C475,15.91,475,2.2,485,0c7,3.36,4.34,9.17,2.1,16.67,3.26-2.74,5-4.3,6.79-5.7,4.5-3.44,6.26-3,10.64,2.8-.86,6.55-6.31,10-10.32,14.34,3.06,8.13,5.85,16.21,9.19,24.06,1.22,2.86,3.53,5.35,5.66,7.71,3.65,4.06,7.4,8.06,11.4,11.77,7.84,7.28,10.63,17.42,14.73,26.65,2.26,5.1.65,11.37-1.69,16.81-6.8,4.66-14.41,5.27-22.2,5.3a10.47,10.47,0,0,1-8.52-3.77c-5.4-6.55-12.5-8-20-5.7-7.19,2.17-13.23,0-19.38-2.86-2.62-1.22-5-3-7.74-3.85a17.6,17.6,0,0,0-8.31-.8c-18,3.84-32.38,13.52-43.61,27.94a21.86,21.86,0,0,0-3.36,6.76c-3.87,12.22-7.35,24.56-13.88,35.79-1.57,2.7-1.85,6.13-3.07,9.08-3.57,8.64-7.42,17-16.36,21.8a11.2,11.2,0,0,0-4.82,6.64c-1.62,6.83-3.18,13.82-3.39,20.79-.31,10.12-3.87,19.45-5.54,29.2-1.3,7.56-2.9,15.19-3.06,22.81-.27,13,2.49,25.36,11,36,3.22,4.05,7.62,8.17,6.22,15-9.79,1.71-19.48,1.62-29.41-2.12l-1.52-7.76-6-1.81a7.29,7.29,0,0,1-.79-2.62c.59-5.7,1.18-11.41,2.05-17.07,2.64-17.19,4.14-34.24-1.44-51.31-1.85-5.66-1.93-12-2.23-18C327.69,226.9,328,219.2,324.81,211.59Z"/></g></g></svg>