<svg xmlns="http://www.w3.org/2000/svg" viewBox="0 0 112.09 71.36"><defs><style>.cls-1{fill:none;stroke:#ff441d;stroke-miterlimit:10;stroke-width:1.5px;}</style></defs><title>Asset 26</title><g id="Layer_2" data-name="Layer 2"><g id="Layer_1-2" data-name="Layer 1"><path class="cls-1" d="M67.74,44.43c-.86,1-.75,2.27-1,3.39-.55,2.64-.71,5.37-1.89,7.87a4,4,0,0,0-.2,1.56A26.71,26.71,0,0,0,65,64.36a5.43,5.43,0,0,0,1.72,3,5.79,5.79,0,0,1,1.17,1.33,1.06,1.06,0,0,1-.7,1.69,10.68,10.68,0,0,1-5.35-.3l-.45-1.79-1.24-.55a4.85,4.85,0,0,1,0-1,24.41,24.41,0,0,0,.55-7.29c-.18-2.09,0-4.24-.94-6.24a4,4,0,0,1-.21-1.75c.09-1.91.23-3.82.36-5.73a5.9,5.9,0,0,0-1-3.79,20.17,20.17,0,0,0-4.91.73,16,16,0,0,1-6.22,1.06l-7.31-.6a3.18,3.18,0,0,0-2.65,1.08,14.88,14.88,0,0,1-6.38,4.14l-.71,1.9-1.27-.22c-.42.62.13,1.67-.87,2.06-1,0-1.11-1-1.53-1.72L25.7,52l-1.24-1.58-1.66.53c-.59,1.75,0,3.31.21,4.85a23.68,23.68,0,0,0,2.24,7.37A7.72,7.72,0,0,0,27.33,66a4.15,4.15,0,0,1,1.78,3.12,2.58,2.58,0,0,1-.64.37,10.43,10.43,0,0,1-4.8-.18L23,67.7l-1.1-.19c-.15-1.73-.25-3.44-.47-5.14a32.71,32.71,0,0,0-.75-3.88A36,36,0,0,0,18,51.24a4.21,4.21,0,0,0-2.75-2.36A26.79,26.79,0,0,0,12,58c-.15,1.18-.33,2.36-.49,3.53a.73.73,0,0,0,0,.39c.82,1.65.88,3.59,2,5.13a3,3,0,0,1,.9,2.69,9.18,9.18,0,0,1-5.09,0L8.91,68,8,67.53a11.89,11.89,0,0,1,.09-7.08,7.22,7.22,0,0,0,.19-2c0-1.72,0-3.45,0-5.17A16.77,16.77,0,0,0,7.22,46.9a4.56,4.56,0,0,1,.21-4c.48-.94.83-2,1.34-2.88a12,12,0,0,0,1-7.35c-.3-2.76-.69-5.51-1.11-8.25-.22-1.41-.61-2.79-.94-4.24A2,2,0,0,0,6.62,21.9,53.63,53.63,0,0,0,5.5,27.52C5.22,29.68,5.27,31.89,5,34c-.56,4.16-.3,8.33-.31,12.5a14.9,14.9,0,0,1-1.29,6,6.46,6.46,0,0,0-.71,2.25c0,.86-1.2,1.09-.86,2.13a9.56,9.56,0,0,1,0,2.59c-1.93-4.66-1-8.93.29-13.14A30.66,30.66,0,0,0,3.49,37c0-3.11,0-6.23.1-9.34a58.54,58.54,0,0,1,.75-6.09A6.52,6.52,0,0,1,5,19.47c2.1-3.92,4.57-7.52,8.27-10.21a11.65,11.65,0,0,1,9.4-2.1,69.53,69.53,0,0,0,16,1c1.25-.05,2.49-.31,3.74-.41q7.71-.64,15.42-1.24l10.28-.8a21,21,0,0,1,2.56-.24c2.24.1,4.48.25,6.71.48,2.63.26,5.24.69,7.87.93A12,12,0,0,0,90.18,6c-.2-1.39-1.16-2.55-1.07-4a8,8,0,0,1,7.18,2.28c2.43-.15,2.42-3,4.47-3.43,1.45.69.89,1.89.43,3.44.67-.57,1-.89,1.4-1.17.93-.71,1.29-.61,2.2.58-.18,1.35-1.3,2.06-2.13,3,.63,1.68,1.21,3.34,1.89,5a6.13,6.13,0,0,0,1.17,1.59c.75.84,1.53,1.66,2.35,2.43,1.62,1.5,2.19,3.59,3,5.5a4.49,4.49,0,0,1-.35,3.47,7.75,7.75,0,0,1-4.58,1.09,2.16,2.16,0,0,1-1.76-.78,3.64,3.64,0,0,0-4.13-1.18,5.33,5.33,0,0,1-4-.59,12.53,12.53,0,0,0-1.6-.79A3.63,3.63,0,0,0,93,22.12a15.18,15.18,0,0,0-9,5.76,4.51,4.51,0,0,0-.69,1.39,35.85,35.85,0,0,1-2.86,7.38,15.29,15.29,0,0,0-.63,1.87c-.74,1.78-1.53,3.5-3.37,4.5a2.31,2.31,0,0,0-1,1.37,21.67,21.67,0,0,0-.7,4.29c-.06,2.09-.8,4-1.14,6a32.08,32.08,0,0,0-.63,4.7,11.1,11.1,0,0,0,2.27,7.43c.66.84,1.57,1.69,1.28,3.09a11.22,11.22,0,0,1-6.07-.44l-.31-1.6-1.24-.37a1.5,1.5,0,0,1-.16-.54c.12-1.18.24-2.35.42-3.52.55-3.55.85-7.06-.3-10.58a14.36,14.36,0,0,1-.46-3.72A13.24,13.24,0,0,0,67.74,44.43Z"/></g></g></svg>